# xmcd CD database file
#
# Track frame offsets:
#	225
#	18394
#	34902
#	49258
#	68026
#	82305
#	103361
#	114262
#	131637
#	146048
#	160090
#	178591
#	196019
#	213118
#	236477
#	248445
#	266834
#	279824
#	292429
#
# Disc length: 4209 seconds
#
# Revision: 0
# Processed by: cddbd v1.5.2PL0 Copyright (c) Steve Scherf et al.
# Submitted via: CDex 1.51
#
DISCID=1b106e13
DTITLE=SwingING - Big TUHH Band - Jubiläumskonzert - 15 Jahre SwingING "Highlights"
DYEAR=2018
DGENRE=Jazz
TTITLE0=The Queen Bee
TTITLE1=It's Alright With Me
TTITLE2=Bis (Till)
TTITLE3=Wave
TTITLE4=That Old Black Magic
TTITLE5=Every Time You Smile That Smile
TTITLE6=Orange Colored Sky
TTITLE7=Moon River
TTITLE8=Something's Gonna Give
TTITLE9=Doch wenn Du träumst (Li'l Darlin')
TTITLE10=The Very Thought Of You
TTITLE11=All The Way
TTITLE12=That Old Feeling
TTITLE13=Groovin' Hard
TTITLE14=Fly Me To The Moon
TTITLE15=Over The Rainbow
TTITLE16=They Can't Take That Away From Me
TTITLE17=I'm Beginning To See The Light
TTITLE18=Sing, Sing, Sing
EXTD=YEAR: 2018
EXTT0=
EXTT1=
EXTT2=
EXTT3=
EXTT4=
EXTT5=
EXTT6=
EXTT7=
EXTT8=
EXTT9=
EXTT10=
EXTT11=
EXTT12=
EXTT13=
EXTT14=
EXTT15=
EXTT16=
EXTT17=
EXTT18=
PLAYORDER=
